<svg width="479" height="393" viewBox="0 0 479 393" fill="none" xmlns="http://www.w3.org/2000/svg">
<g clip-path="url(#clip0_113_2578)">
<path d="M0.000133681 380.985C-0.146216 396.296 96.4377 397.699 98.2774 380.986C98.4238 365.676 1.83986 364.273 0.000133681 380.985Z" fill="#D47AF4"/>
<path d="M75.5665 327.832L82.7446 331.743L78.1767 346.736L70.9992 347.388L67.0836 338.914L75.5665 327.832Z" fill="#FFB8B8"/>
<path d="M53.3804 357.817V364.987L42.2873 364.336L42.4418 358.43L53.3804 357.817Z" fill="#FFB8B8"/>
<path d="M78.1768 241.786L74.2618 290.676L61.8634 362.38L42.2873 359.773L48.8125 303.061L46.2023 250.913L78.1768 241.786Z" fill="#2F2E41"/>
<path d="M25.9736 205.283L72.9565 205.935L78.1769 241.787L46.2024 256.78L38.3719 285.461L78.1768 327.832L62.5159 347.388C62.5159 347.388 40.3295 317.402 24.016 300.454C7.70246 283.506 15.5329 232.009 15.5329 232.009L25.9736 205.283Z" fill="#2F2E41"/>
<path d="M54.0329 112.719C46.1044 112.719 39.677 106.298 39.677 98.3782C39.677 90.4579 46.1044 84.0373 54.0329 84.0373C61.9614 84.0373 68.3888 90.4579 68.3888 98.3782C68.3888 106.298 61.9614 112.719 54.0329 112.719Z" fill="#FFB8B8"/>
<path d="M59.2532 108.156V122.497L49.4651 138.141C49.4651 138.141 34.4567 127.06 37.7194 124.452C40.9821 121.845 41.6346 101.637 41.6346 101.637L59.2532 108.156Z" fill="#FFB8B8"/>
<path d="M59.2532 119.889L69.0415 131.623L65.1259 213.105L34.4568 212.453L29.2365 141.401L35.7616 123.149L40.2378 117.065L48.1601 129.015L59.2532 119.889Z" fill="#D47AF4"/>
<path d="M74.9142 162.26L82.0921 189.638L74.9142 217.016L86.6599 232.661L97.1006 183.12C97.1006 183.12 89.27 142.705 88.6175 138.142C87.965 133.578 86.6599 132.927 86.6599 132.927L81.4396 133.578L74.9142 162.26Z" fill="white"/>
<path d="M22.7113 172.689L18.1433 181.164L16.8379 195.505L19.4481 211.801L10.3128 226.794L1.17752 185.727L10.9652 132.926H14.8808L22.7113 172.689Z" fill="white"/>
<path d="M78.1769 327.18C78.1769 327.18 87.3124 329.788 90.5752 330.439C93.8379 331.091 88.6175 343.477 88.6175 343.477C88.6175 343.477 85.3549 360.425 84.7023 363.684C84.0498 366.943 79.482 378.025 73.6091 379.329C67.7363 380.632 71.6515 356.514 71.6515 356.514C71.6515 356.514 69.0413 348.692 69.0413 346.084C69.0413 343.477 72.9566 344.78 72.9566 344.78C83.3972 343.477 78.1769 327.18 78.1769 327.18Z" fill="#E5C5F0"/>
<path d="M55.9086 377.711C55.256 381.622 56.5611 381.622 46.1205 382.926C35.6798 384.23 38.29 375.756 38.29 375.756C38.7265 371.761 39.6018 367.826 40.9001 364.022C42.8578 358.807 53.2984 365.326 53.2984 365.326C53.2984 365.326 56.5611 373.8 55.9086 377.711Z" fill="#E5C5F0"/>
<path d="M41.6176 102.093L41.2775 107.89C41.2775 107.89 37.0668 98.3782 36.4143 88.6003C35.7617 78.8224 46.855 76.8669 53.3803 76.215C59.9057 75.5632 70.9989 80.1262 70.9989 85.341C70.9989 90.5559 59.2532 89.2522 54.6854 87.9485C50.1176 86.6448 48.16 97.7263 48.16 97.7263L45.5498 98.3782L41.6176 102.093Z" fill="#9D6E36"/>
<path d="M63.1047 124.506L59.2531 119.889L48.1601 129.015L59.2531 136.838L63.1047 124.506Z" fill="black"/>
<path d="M35.7615 123.149L40.3295 117.282L48.16 129.015L38.3717 136.186L35.7615 123.149Z" fill="black"/>
<path d="M76.8718 171.386L74.2616 196.157L79.4819 211.15L82.7446 225.49C82.7446 225.49 82.7446 239.179 69.6938 239.831C56.643 240.483 45.5499 198.764 45.5499 198.764C45.5499 198.764 43.5922 207.89 42.2872 213.105C40.9821 218.32 18.7957 239.179 18.7957 239.179C18.7957 239.179 13.5754 238.528 9.00758 228.098C4.4398 217.668 18.1432 207.89 18.1432 207.89L22.0584 194.201L20.7533 177.253L11.6177 132.927L38.6982 118.912L35.7617 156.393L45.5498 185.727L60.232 120.867L65.126 124.452L86.0073 132.927L76.8718 171.386Z" fill="white"/>
<path d="M334.762 269.981C336.052 269.971 337.357 269.962 338.639 269.922L338.599 268.631C337.331 268.67 336.033 268.688 334.762 268.689C333.484 268.689 332.182 268.668 330.89 268.626L330.849 269.917C332.154 269.959 333.471 269.981 334.762 269.981ZM346.412 269.435C348.986 269.192 351.586 268.862 354.139 268.455L353.935 267.18C351.41 267.582 348.837 267.909 346.29 268.15L346.412 269.435ZM323.076 269.421L323.199 268.136C320.653 267.892 318.082 267.562 315.556 267.156L315.35 268.432C317.903 268.842 320.503 269.175 323.076 269.421H323.076ZM361.788 266.981C364.308 266.41 366.844 265.749 369.325 265.017L368.959 263.778C366.504 264.503 363.995 265.156 361.502 265.721L361.788 266.981ZM307.704 266.949L307.991 265.69C305.492 265.12 302.983 264.464 300.536 263.738L300.168 264.976C302.642 265.71 305.177 266.373 307.704 266.949H307.704ZM376.721 262.572C379.153 261.679 381.587 260.697 383.954 259.65L383.43 258.47C381.089 259.504 378.682 260.477 376.275 261.36L376.721 262.572ZM292.776 262.521L293.223 261.309C290.831 260.429 288.432 259.457 286.093 258.42L285.568 259.601C287.934 260.649 290.359 261.632 292.776 262.521H292.776ZM390.981 256.269C393.269 255.076 395.555 253.789 397.774 252.446L397.103 251.341C394.908 252.671 392.647 253.943 390.382 255.124L390.981 256.269ZM278.561 256.222L279.16 255.077C276.9 253.897 274.644 252.625 272.455 251.296L271.783 252.4C273.997 253.743 276.277 255.029 278.561 256.222H278.561ZM404.306 248.196C406.426 246.718 408.527 245.151 410.551 243.538L409.745 242.528C407.742 244.124 405.663 245.674 403.566 247.136L404.306 248.196ZM265.262 248.15L266.004 247.091C263.907 245.627 261.831 244.077 259.833 242.483L259.026 243.492C261.045 245.103 263.143 246.67 265.262 248.15V248.15ZM416.485 238.492C418.401 236.754 420.286 234.933 422.084 233.081L421.156 232.181C419.376 234.014 417.512 235.816 415.616 237.536L416.485 238.492ZM253.098 238.447L253.968 237.491C252.076 235.775 250.213 233.972 248.431 232.134L247.503 233.033C249.303 234.89 251.186 236.712 253.098 238.447V238.447ZM427.326 227.326C429.004 225.36 430.64 223.316 432.189 221.25L431.154 220.475C429.621 222.52 428.003 224.543 426.342 226.487L427.326 227.326ZM242.262 227.272L243.246 226.434C241.586 224.489 239.967 222.463 238.434 220.416L237.399 221.189C238.948 223.259 240.584 225.305 242.262 227.272V227.272ZM436.654 214.877C438.068 212.712 439.43 210.478 440.7 208.234L439.574 207.598C438.318 209.818 436.971 212.029 435.571 214.17L436.654 214.877ZM232.933 214.807L234.016 214.101C232.616 211.956 231.269 209.741 230.012 207.516L228.886 208.151C230.156 210.4 231.518 212.639 232.933 214.807V214.807ZM444.311 201.348C445.436 199.023 446.499 196.633 447.47 194.245L446.272 193.76C445.311 196.121 444.26 198.485 443.147 200.785L444.311 201.348ZM225.273 201.247L226.438 200.685C225.325 198.382 224.273 196.011 223.311 193.639L222.112 194.123C223.085 196.522 224.148 198.919 225.273 201.247V201.247ZM450.17 186.946C450.988 184.492 451.735 181.982 452.391 179.486L451.14 179.158C450.491 181.627 449.752 184.111 448.943 186.537L450.17 186.946ZM219.418 186.809L220.646 186.403C219.841 183.979 219.104 181.495 218.457 179.02L217.206 179.347C217.86 181.849 218.605 184.359 219.418 186.809V186.809ZM454.126 171.901C454.62 169.366 455.038 166.782 455.368 164.219L454.086 164.054C453.759 166.59 453.345 169.146 452.857 171.653L454.126 171.901ZM215.48 171.759L216.749 171.514C216.264 169.007 215.853 166.45 215.529 163.912L214.246 164.076C214.574 166.641 214.989 169.225 215.48 171.759V171.759ZM456.116 156.475C456.282 153.9 456.367 151.283 456.37 148.697L455.077 148.695C455.074 151.255 454.989 153.844 454.825 156.392L456.116 156.475ZM213.508 156.33L214.798 156.248C214.637 153.703 214.556 151.114 214.556 148.554L214.556 148.271H213.263L213.263 148.55C213.263 151.141 213.345 153.758 213.508 156.33ZM454.843 141L456.134 140.921C455.974 138.341 455.728 135.735 455.405 133.174L454.122 133.335C454.442 135.87 454.685 138.448 454.843 141ZM214.816 140.576C214.984 138.023 215.236 135.445 215.565 132.915L214.283 132.748C213.95 135.306 213.695 137.911 213.525 140.492L214.816 140.576ZM452.91 125.733L454.18 125.489C453.692 122.954 453.115 120.401 452.464 117.9L451.212 118.224C451.856 120.699 452.428 123.225 452.91 125.733ZM216.804 125.317C217.297 122.807 217.878 120.283 218.529 117.814L217.279 117.485C216.62 119.98 216.033 122.532 215.535 125.068L216.804 125.317ZM449.032 110.84L450.26 110.435C449.448 107.981 448.545 105.519 447.574 103.117L446.375 103.601C447.335 105.977 448.229 108.412 449.032 110.84ZM220.734 110.437C221.546 108.013 222.447 105.584 223.412 103.219L222.215 102.731C221.239 105.122 220.328 107.577 219.508 110.028L220.734 110.437ZM443.256 96.549L444.422 95.9889C443.3 93.6595 442.087 91.3352 440.817 89.0809L439.69 89.7148C440.947 91.9449 442.146 94.2443 443.256 96.549ZM226.546 96.1967C227.66 93.903 228.864 91.6121 230.127 89.3878L229.002 88.7507C227.726 90.9987 226.508 93.3145 225.383 95.6335L226.546 96.1967ZM435.693 83.1245L436.777 82.42C435.367 80.2546 433.867 78.1053 432.319 76.0324L431.283 76.8044C432.814 78.8556 434.298 80.9819 435.693 83.1245ZM234.138 82.8205C235.537 80.6857 237.026 78.5661 238.562 76.5206L237.528 75.7454C235.975 77.813 234.47 79.9553 233.056 82.1128L234.138 82.8205ZM426.478 70.7804L427.463 69.9441C425.788 67.9758 424.028 66.0356 422.23 64.1777L421.3 65.0753C423.079 66.9136 424.821 68.8333 426.478 70.7804ZM243.381 70.5143C245.044 68.5725 246.792 66.6585 248.575 64.8255L247.648 63.9255C245.845 65.7776 244.079 67.7121 242.399 69.6747L243.381 70.5143ZM415.77 59.7117L416.64 58.7568C414.727 57.0156 412.734 55.3154 410.718 53.7039L409.91 54.7124C411.905 56.307 413.876 57.9892 415.77 59.7117V59.7117ZM254.122 59.4774C256.018 57.7627 257.995 56.0856 259.999 54.4929L259.193 53.4818C257.168 55.0918 255.17 56.7866 253.254 58.5199L254.122 59.4774ZM403.745 50.0969L404.486 49.0391C402.371 47.5578 400.178 46.1257 397.971 44.7822L397.298 45.8854C399.482 47.2147 401.651 48.6317 403.745 50.0969ZM266.183 49.8913C268.288 48.4276 270.464 47.0154 272.65 45.6937L271.981 44.5886C269.771 45.9242 267.571 47.3516 265.444 48.831L266.183 49.8913ZM390.597 42.0959L391.198 40.9517C388.912 39.7539 386.555 38.6141 384.195 37.5643L383.669 38.7444C386.004 39.7829 388.335 40.9107 390.597 42.0959ZM279.376 41.9186C281.646 40.7379 283.986 39.6154 286.331 38.5823L285.809 37.4003C283.439 38.4445 281.074 39.5792 278.778 40.7726L279.376 41.9186ZM376.542 35.8467L376.991 34.635C374.566 33.7391 372.08 32.9103 369.601 32.172L369.232 33.4101C371.684 34.1402 374.143 34.9602 376.542 35.8467H376.542ZM293.49 35.7001C295.893 34.8218 298.356 34.0106 300.809 33.2897L300.444 32.0502C297.964 32.779 295.475 33.599 293.045 34.4871L293.49 35.7001ZM361.78 31.4501L362.068 30.1911C359.552 29.6152 356.98 29.1135 354.423 28.6988L354.216 29.9741C356.746 30.3841 359.29 30.8805 361.78 31.4501ZM308.268 31.3561C310.762 30.7947 313.308 30.3072 315.837 29.9066L315.634 28.6306C313.078 29.0356 310.504 29.5285 307.984 30.0959L308.268 31.3561ZM346.574 28.9854L346.699 27.7C344.131 27.4511 341.516 27.2812 338.927 27.1951L338.884 28.4862C341.446 28.5714 344.033 28.7394 346.574 28.9854V28.9854ZM323.483 28.9454C326.027 28.7079 328.615 28.549 331.174 28.473L331.136 27.1818C328.549 27.2588 325.934 27.4193 323.363 27.6593L323.483 28.9454Z" fill="#D0CDE1"/>
<path d="M339.342 60.7134C322.559 60.7134 308.954 47.1222 308.954 30.3567C308.954 13.5911 322.559 0 339.342 0C356.125 0 369.731 13.5911 369.731 30.3567C369.731 47.1222 356.125 60.7134 339.342 60.7134Z" fill="#D47AF4"/>
<path d="M221.668 143.387C204.885 143.387 191.279 129.796 191.279 113.03C191.279 96.2647 204.885 82.6735 221.668 82.6735C238.451 82.6735 252.056 96.2647 252.056 113.03C252.056 129.796 238.451 143.387 221.668 143.387Z" fill="#D47AF4"/>
<path d="M258.522 269.981C241.739 269.981 228.133 256.39 228.133 239.624C228.133 222.858 241.739 209.267 258.522 209.267C275.305 209.267 288.91 222.858 288.91 239.624C288.91 256.39 275.305 269.981 258.522 269.981Z" fill="#D47AF4"/>
<path d="M404.645 275.148C387.862 275.148 374.257 261.557 374.257 244.791C374.257 228.026 387.862 214.434 404.645 214.434C421.428 214.434 435.034 228.026 435.034 244.791C435.034 261.557 421.428 275.148 404.645 275.148Z" fill="#D47AF4"/>
<path d="M448.612 143.387C431.828 143.387 418.223 129.796 418.223 113.03C418.223 96.2647 431.828 82.6735 448.612 82.6735C465.395 82.6735 479 96.2647 479 113.03C479 129.796 465.395 143.387 448.612 143.387Z" fill="#D47AF4"/>
<path d="M326.32 27.9365H336.92C337.883 27.9365 338.808 27.554 339.489 26.8731C340.171 26.1923 340.554 25.2689 340.554 24.3061V13.7175C340.554 13.6778 340.562 13.6385 340.577 13.6018C340.592 13.5651 340.614 13.5317 340.642 13.5036C340.671 13.4755 340.704 13.4532 340.741 13.438C340.777 13.4228 340.817 13.415 340.857 13.415H347.822C349.107 13.415 350.34 13.925 351.248 14.8327C352.157 15.7405 352.668 16.9717 352.668 18.2555V42.4579C352.668 43.7417 352.157 44.9728 351.248 45.8806C350.34 46.7884 349.107 47.2984 347.822 47.2984H330.863C329.577 47.2984 328.345 46.7884 327.436 45.8806C326.528 44.9728 326.017 43.7417 326.017 42.4579V28.239C326.017 28.1992 326.025 28.1599 326.04 28.1232C326.055 28.0865 326.078 28.0531 326.106 28.0251C326.134 27.997 326.167 27.9747 326.204 27.9595C326.241 27.9443 326.28 27.9365 326.32 27.9365V27.9365ZM333.285 40.0376H345.399C345.721 40.0376 346.029 39.9102 346.256 39.6832C346.483 39.4563 346.611 39.1485 346.611 38.8275C346.611 38.5066 346.483 38.1988 346.256 37.9718C346.029 37.7449 345.721 37.6174 345.399 37.6174H333.285C332.964 37.6174 332.656 37.7449 332.429 37.9718C332.202 38.1988 332.074 38.5066 332.074 38.8275C332.074 39.1485 332.202 39.4563 332.429 39.6832C332.656 39.9102 332.964 40.0376 333.285 40.0376ZM333.285 33.987H345.399C345.721 33.987 346.029 33.8595 346.256 33.6326C346.483 33.4057 346.611 33.0979 346.611 32.7769C346.611 32.456 346.483 32.1482 346.256 31.9212C346.029 31.6943 345.721 31.5668 345.399 31.5668H333.285C332.964 31.5668 332.656 31.6943 332.429 31.9212C332.202 32.1482 332.074 32.456 332.074 32.7769C332.074 33.0979 332.202 33.4057 332.429 33.6326C332.656 33.8595 332.964 33.987 333.285 33.987Z" fill="white"/>
<path d="M326.985 25.2583L337.873 14.3816C337.894 14.3605 337.921 14.3462 337.95 14.3404C337.979 14.3347 338.01 14.3377 338.037 14.3491C338.065 14.3605 338.089 14.3797 338.105 14.4045C338.122 14.4292 338.131 14.4584 338.131 14.4882V24.3061C338.131 24.627 338.003 24.9348 337.776 25.1617C337.549 25.3887 337.241 25.5162 336.92 25.5162H327.091C327.062 25.5161 327.032 25.5071 327.008 25.4905C326.983 25.4739 326.964 25.4503 326.952 25.4227C326.941 25.3951 326.938 25.3648 326.944 25.3356C326.949 25.3063 326.964 25.2794 326.985 25.2583L326.985 25.2583Z" fill="white"/>
<path d="M254.127 233.644C254.499 233.644 254.86 233.773 255.148 234.01C255.436 234.246 255.633 234.575 255.705 234.94C255.778 235.305 255.721 235.684 255.546 236.012C255.37 236.34 255.086 236.597 254.741 236.739C254.397 236.882 254.014 236.9 253.658 236.792C253.301 236.684 252.993 236.455 252.786 236.146C252.579 235.836 252.486 235.465 252.523 235.094C252.56 234.724 252.724 234.378 252.987 234.115C253.137 233.965 253.315 233.847 253.51 233.766C253.706 233.685 253.915 233.644 254.127 233.644Z" fill="white"/>
<path d="M245.161 227.211V227.205C245.212 226.982 245.324 226.777 245.486 226.614C245.647 226.451 245.851 226.336 246.074 226.283C247.872 225.845 250.701 226.312 253.835 227.566C256.85 228.736 259.608 230.481 261.956 232.702C262.597 233.34 263.193 234.021 263.739 234.742C264.945 234.658 266.154 234.852 267.273 235.309C270.757 236.84 271.752 240.76 272.017 242.37C272.055 242.598 272.04 242.833 271.973 243.055C271.906 243.276 271.788 243.48 271.629 243.649C271.471 243.818 271.275 243.948 271.058 244.03C270.84 244.111 270.607 244.141 270.376 244.118H270.368L266.487 243.694C266.482 243.744 266.477 243.789 266.473 243.831C266.423 244.303 266.212 244.744 265.875 245.08L263.981 246.973C263.646 247.31 263.205 247.521 262.732 247.57L262.602 247.584L263.024 251.456V251.464C263.045 251.661 263.026 251.86 262.97 252.049C262.913 252.239 262.82 252.416 262.695 252.569C262.57 252.723 262.416 252.85 262.241 252.945C262.067 253.039 261.876 253.098 261.679 253.118C261.633 253.123 261.586 253.125 261.539 253.126C261.455 253.126 261.372 253.119 261.289 253.105C259.669 252.845 255.747 251.863 254.218 248.364C253.765 247.25 253.57 246.048 253.648 244.847C252.923 244.303 252.238 243.708 251.599 243.066C249.377 240.743 247.628 238.009 246.452 235.018C245.203 231.922 244.733 229.076 245.161 227.211ZM251.621 237.752C252.116 238.247 252.748 238.585 253.436 238.722C254.124 238.859 254.837 238.789 255.485 238.522C256.133 238.254 256.687 237.8 257.077 237.218C257.467 236.635 257.675 235.951 257.676 235.25C257.676 234.549 257.468 233.864 257.079 233.282C256.69 232.699 256.136 232.245 255.488 231.976C254.84 231.708 254.128 231.637 253.44 231.773C252.752 231.91 252.12 232.247 251.623 232.742L251.621 232.745C250.956 233.399 250.579 234.29 250.572 235.222C250.565 236.154 250.928 237.05 251.583 237.714L251.621 237.752Z" fill="white"/>
<path d="M264.198 247.486C264.432 247.457 264.668 247.515 264.862 247.647C265.248 247.911 265.635 248.171 266.026 248.425C266.196 248.534 266.397 248.583 266.598 248.564C266.799 248.545 266.988 248.459 267.134 248.32C267.28 248.181 267.375 247.997 267.404 247.797C267.433 247.598 267.394 247.394 267.293 247.219L266.56 245.954C266.455 245.8 266.397 245.62 266.392 245.435C266.387 245.249 266.436 245.066 266.532 244.908C266.629 244.749 266.769 244.622 266.936 244.541C267.104 244.46 267.291 244.429 267.475 244.452C268.289 244.555 269.045 244.925 269.625 245.504C269.846 245.726 270.517 246.397 270.879 248.956C270.982 249.691 271.046 250.431 271.073 251.172C271.076 251.299 271.054 251.425 271.009 251.543C270.963 251.661 270.895 251.769 270.808 251.861C270.72 251.953 270.616 252.027 270.5 252.078C270.384 252.13 270.259 252.158 270.133 252.161C270.124 252.161 270.116 252.161 270.107 252.161H270.083C269.34 252.135 268.599 252.071 267.863 251.969C265.3 251.607 264.628 250.935 264.407 250.715C263.825 250.135 263.455 249.376 263.358 248.561C263.327 248.307 263.398 248.051 263.556 247.85C263.713 247.648 263.944 247.518 264.198 247.486V247.486Z" fill="white"/>
<path d="M415.104 261.287H417.305C417.743 261.287 418.163 261.113 418.473 260.804C418.783 260.494 418.957 260.075 418.957 259.637V249.74C418.957 249.302 418.783 248.883 418.473 248.573C418.163 248.264 417.743 248.09 417.305 248.09H415.104C414.666 248.09 414.246 248.264 413.936 248.573C413.626 248.883 413.452 249.302 413.452 249.74V259.637C413.452 260.075 413.626 260.494 413.936 260.804C414.246 261.113 414.666 261.287 415.104 261.287V261.287Z" fill="white"/>
<path d="M399.691 261.287H401.893C402.331 261.287 402.751 261.113 403.061 260.804C403.37 260.494 403.544 260.075 403.544 259.637V243.142C403.544 242.704 403.37 242.284 403.061 241.975C402.751 241.666 402.331 241.492 401.893 241.492H399.691C399.253 241.492 398.833 241.666 398.524 241.975C398.214 242.284 398.04 242.704 398.04 243.142V259.637C398.04 260.075 398.214 260.494 398.524 260.804C398.833 261.113 399.253 261.287 399.691 261.287V261.287Z" fill="white"/>
<path d="M391.985 261.287H394.187C394.625 261.287 395.045 261.113 395.355 260.804C395.664 260.494 395.838 260.075 395.838 259.637V235.443C395.838 235.006 395.664 234.586 395.355 234.277C395.045 233.968 394.625 233.794 394.187 233.794H391.985C391.547 233.794 391.127 233.968 390.818 234.277C390.508 234.586 390.334 235.006 390.334 235.443V259.637C390.334 260.075 390.508 260.494 390.818 260.804C391.127 261.113 391.547 261.287 391.985 261.287V261.287Z" fill="white"/>
<path d="M407.397 261.287H409.599C410.037 261.287 410.457 261.113 410.767 260.804C411.077 260.494 411.25 260.075 411.25 259.637V229.945C411.25 229.507 411.077 229.088 410.767 228.778C410.457 228.469 410.037 228.295 409.599 228.295H407.397C406.959 228.295 406.539 228.469 406.23 228.778C405.92 229.088 405.746 229.507 405.746 229.945V259.637C405.746 259.854 405.789 260.069 405.872 260.269C405.955 260.469 406.076 260.651 406.23 260.804C406.383 260.957 406.565 261.079 406.766 261.161C406.966 261.244 407.181 261.287 407.397 261.287V261.287Z" fill="white"/>
<path d="M220.212 112.235L221.785 110.663C222.145 110.303 222.634 110.1 223.143 110.099C223.653 110.098 224.142 110.298 224.505 110.656L235.441 120.738C235.842 121.093 236.088 121.592 236.125 122.126C236.136 122.392 236.093 122.657 235.998 122.904C235.902 123.152 235.757 123.378 235.57 123.567L233.22 125.94L233.216 125.944C232.853 126.306 232.362 126.51 231.849 126.511H231.778C231.513 126.496 231.253 126.429 231.013 126.314C230.774 126.199 230.559 126.037 230.382 125.839L220.219 114.964C219.856 114.604 219.65 114.115 219.648 113.605C219.646 113.094 219.847 112.603 220.207 112.24L220.212 112.235Z" fill="white"/>
<path d="M207.57 109.058L207.589 109.039L209.653 106.998C209.774 106.878 209.918 106.782 210.076 106.718C210.234 106.653 210.403 106.62 210.574 106.621C210.851 106.622 211.12 106.709 211.344 106.87C211.344 106.845 211.341 106.819 211.339 106.797C211.256 106.27 211.367 105.73 211.652 105.279C212.107 104.667 212.606 104.089 213.146 103.549L213.151 103.545C214.66 102.098 216.434 100.955 218.376 100.178C219.39 99.762 220.477 99.5484 221.574 99.5491C222.993 99.5363 224.373 100.019 225.475 100.914C225.788 101.213 226.074 101.54 226.329 101.89C226.451 102.058 226.515 102.261 226.512 102.468C226.509 102.675 226.44 102.876 226.313 103.041C226.187 103.205 226.011 103.325 225.812 103.382C225.612 103.438 225.399 103.429 225.205 103.355C225.036 103.292 224.864 103.239 224.688 103.197C224.323 103.12 223.949 103.096 223.577 103.128C222.806 103.208 222.067 103.479 221.427 103.915C221.068 104.217 220.782 104.597 220.592 105.025C220.401 105.454 220.31 105.92 220.327 106.388C220.594 107.15 221.003 107.854 221.531 108.463C221.672 108.649 221.741 108.879 221.725 109.112C221.709 109.344 221.609 109.563 221.444 109.727L219.371 111.798C219.197 111.973 218.962 112.074 218.716 112.081C218.469 112.088 218.229 112 218.046 111.836C217.459 111.313 216.567 110.524 216.255 110.331C215.988 110.153 215.686 110.034 215.369 109.982C215.133 109.959 214.895 110.009 214.689 110.125C214.688 110.135 214.689 110.146 214.692 110.156C214.695 110.166 214.7 110.175 214.707 110.182L214.817 110.286L214.835 110.303C215.079 110.546 215.216 110.875 215.217 111.218C215.217 111.562 215.081 111.892 214.839 112.135L214.832 112.141L212.768 114.182C212.647 114.302 212.503 114.398 212.345 114.462C212.187 114.527 212.018 114.559 211.848 114.558C211.505 114.559 211.175 114.425 210.931 114.185L207.587 110.886C207.575 110.874 207.564 110.862 207.553 110.85C207.329 110.605 207.206 110.283 207.209 109.951C207.212 109.618 207.341 109.299 207.57 109.058Z" fill="white"/>
<path d="M443.787 111.223C444.025 111.223 444.258 111.152 444.457 111.02C444.655 110.887 444.81 110.699 444.901 110.479C444.992 110.259 445.016 110.016 444.97 109.783C444.923 109.549 444.808 109.334 444.64 109.166L441.874 106.403L444.64 103.64C444.866 103.414 444.993 103.108 444.993 102.788C444.993 102.468 444.866 102.162 444.64 101.936C444.413 101.71 444.107 101.583 443.787 101.583C443.467 101.583 443.16 101.71 442.934 101.936L439.315 105.551C439.203 105.663 439.114 105.796 439.054 105.942C438.993 106.088 438.962 106.245 438.962 106.403C438.962 106.561 438.993 106.718 439.054 106.864C439.114 107.01 439.203 107.143 439.315 107.255L442.934 110.87C443.046 110.982 443.179 111.071 443.325 111.131C443.471 111.192 443.628 111.223 443.787 111.223Z" fill="white"/>
<path d="M463.086 114.838C463.245 114.838 463.401 114.806 463.548 114.746C463.694 114.685 463.827 114.597 463.939 114.485C464.051 114.373 464.14 114.24 464.201 114.094C464.261 113.948 464.292 113.791 464.292 113.633V112.428C464.283 110.514 463.518 108.681 462.163 107.327C460.809 105.973 458.975 105.208 457.059 105.198H441.374C441.054 105.198 440.747 105.325 440.521 105.551C440.295 105.777 440.168 106.083 440.168 106.403C440.168 106.722 440.295 107.029 440.521 107.255C440.747 107.481 441.054 107.608 441.374 107.608H457.055C458.333 107.615 459.556 108.126 460.46 109.029C461.363 109.932 461.873 111.155 461.88 112.431V113.633C461.88 113.791 461.911 113.948 461.972 114.094C462.032 114.24 462.121 114.373 462.233 114.485C462.345 114.597 462.478 114.685 462.625 114.746C462.771 114.806 462.928 114.838 463.086 114.838V114.838Z" fill="white"/>
<path d="M453.436 124.477C453.595 124.477 453.752 124.446 453.898 124.386C454.045 124.325 454.177 124.236 454.289 124.124L457.908 120.509C458.02 120.398 458.109 120.265 458.17 120.119C458.23 119.972 458.261 119.816 458.261 119.657C458.261 119.499 458.23 119.343 458.17 119.196C458.109 119.05 458.02 118.917 457.908 118.805L454.289 115.191C454.063 114.965 453.756 114.838 453.437 114.838C453.117 114.839 452.81 114.966 452.584 115.191C452.358 115.417 452.231 115.723 452.231 116.043C452.231 116.362 452.358 116.669 452.584 116.895L455.349 119.657L452.584 122.42C452.415 122.589 452.3 122.804 452.253 123.037C452.207 123.271 452.231 123.513 452.322 123.733C452.413 123.954 452.568 124.142 452.766 124.274C452.965 124.407 453.198 124.477 453.436 124.477Z" fill="white"/>
<path d="M455.849 120.862C456.169 120.862 456.476 120.735 456.702 120.509C456.928 120.284 457.055 119.977 457.055 119.657C457.055 119.338 456.928 119.031 456.702 118.805C456.476 118.579 456.169 118.452 455.849 118.452H440.168C438.89 118.445 437.667 117.934 436.763 117.031C435.86 116.128 435.35 114.906 435.343 113.629V112.428C435.343 112.108 435.216 111.802 434.99 111.576C434.764 111.35 434.457 111.223 434.137 111.223C433.817 111.223 433.51 111.35 433.284 111.576C433.058 111.802 432.931 112.108 432.931 112.428V113.633C432.94 115.547 433.705 117.379 435.06 118.733C436.414 120.087 438.248 120.852 440.164 120.862L455.849 120.862Z" fill="white"/>
</g>
<defs>
<clipPath id="clip0_113_2578">
<rect width="479" height="393" fill="white" transform="matrix(-1 0 0 1 479 0)"/>
</clipPath>
</defs>
</svg>
