<svg width="357" height="355" viewBox="0 0 357 355" fill="none" xmlns="http://www.w3.org/2000/svg">
<g clip-path="url(#clip0_115_2652)">
<path d="M237.455 355H19.4862C14.3199 354.994 9.36692 352.94 5.71381 349.287C2.0607 345.635 0.00583161 340.683 0 335.518V19.482C0.00583161 14.3169 2.0607 9.36493 5.71381 5.7126C9.36692 2.06027 14.3199 0.00583036 19.4862 0H237.455C242.621 0.00582313 247.574 2.06026 251.227 5.71259C254.88 9.36492 256.935 14.3169 256.941 19.482V335.518C256.935 340.683 254.88 345.635 251.227 349.287C247.574 352.94 242.621 354.994 237.455 355V355Z" fill="white"/>
<path d="M237.839 342.57H19.1025C17.51 342.568 15.9832 341.935 14.8571 340.809C13.731 339.683 13.0975 338.157 13.0957 336.564V18.4355C13.0975 16.8433 13.731 15.3168 14.8571 14.191C15.9832 13.0651 17.51 12.4318 19.1025 12.43H237.839C239.431 12.4318 240.958 13.0651 242.084 14.191C243.21 15.3168 243.844 16.8433 243.845 18.4355V336.564C243.844 338.157 243.21 339.683 242.084 340.809C240.958 341.935 239.431 342.568 237.839 342.57V342.57Z" fill="#D47AF4"/>
<path d="M127.642 7.62371C128.557 7.62371 129.3 6.8817 129.3 5.96638C129.3 5.05106 128.557 4.30905 127.642 4.30905C126.726 4.30905 125.984 5.05106 125.984 5.96638C125.984 6.8817 126.726 7.62371 127.642 7.62371Z" fill="white"/>
<path d="M186.817 146.968L179.575 125.286L179.453 124.909L209.947 105.651L211.569 107.835L220.061 119.269L216.957 128.516L208.933 152.409L208.581 153.459L223.441 164.505C224.03 165.591 224.519 166.581 224.917 167.491C229.353 177.597 222.786 177.138 222.786 177.138L192.565 164.187L186.817 146.968Z" fill="#FFB7B7"/>
<path d="M202.815 151.005L201.483 147.013L194.945 127.419L193.582 123.335L192.438 119.916L207.349 110.497L222.933 100.658L233.047 114.276L229.982 123.407L228.492 127.844L226.188 134.707L221.567 148.467L236.426 159.513C237.551 161.484 238.438 163.581 239.071 165.76C239.329 166.67 239.452 167.613 239.434 168.558C239.459 169.042 239.38 169.525 239.203 169.977C239.027 170.428 238.757 170.836 238.411 171.176C238.064 171.515 237.65 171.777 237.195 171.944C236.741 172.111 236.255 172.18 235.772 172.146L205.551 159.195L202.815 151.005Z" fill="#FFB7B7"/>
<path opacity="0.15" d="M201.398 151.889L199.644 133.406L208.383 128.668L208.955 129.723L200.913 134.082L202.539 151.217L220.406 163.451L219.729 164.441L201.398 151.889Z" fill="black"/>
<path opacity="0.15" d="M220.46 151.27L219.748 152.235L237.779 165.554L238.492 164.59L220.46 151.27Z" fill="black"/>
<path d="M219.386 169.388L128.676 105.633L37.0396 168.794L127.309 206.904L219.386 169.388Z" fill="white"/>
<path d="M154.441 115.273L184.987 85.4143L239.616 81.7243L307.523 146.556L357 173.627L343.061 214.607L283.343 186.266C271.185 185.373 263.362 181.339 258.414 177.097C256.713 175.64 255.179 173.998 253.842 172.202C252.378 170.296 251.235 168.164 250.46 165.89L226.188 134.707L221.184 128.272L217.943 124.107L207.349 110.497L206.587 109.519L188.589 109.042L179.222 121.337L172.642 129.965C172.489 133.003 171.391 135.918 169.503 138.304C163.602 145.479 151.639 144.078 151.639 144.078L154.441 115.273Z" fill="#FFB7B7"/>
<path d="M37.3891 168.735H37.4544L74.9183 184.729L126.177 206.612C126.377 206.696 126.592 206.74 126.809 206.741C127.026 206.742 127.242 206.701 127.443 206.618L180.326 184.683L218.711 168.761L218.769 168.735H218.835C219.44 168.736 220.021 168.977 220.449 169.405C220.877 169.833 221.118 170.413 221.119 171.019V270.205C221.118 270.811 220.877 271.391 220.449 271.82C220.021 272.248 219.44 272.489 218.835 272.489H37.3891C36.7835 272.489 36.2028 272.248 35.7745 271.82C35.3463 271.391 35.1054 270.811 35.1047 270.205V171.019C35.1054 170.413 35.3463 169.833 35.7745 169.405C36.2028 168.977 36.7835 168.736 37.3891 168.735V168.735Z" fill="white"/>
<path d="M37.2262 169.388C37.2928 169.388 37.3578 169.367 37.4124 169.329L127.665 106.488C127.94 106.298 128.266 106.196 128.6 106.197C128.934 106.197 129.26 106.3 129.534 106.491L219.137 169.329C219.208 169.378 219.295 169.397 219.38 169.382C219.465 169.367 219.541 169.319 219.591 169.248C219.64 169.178 219.66 169.09 219.645 169.005C219.63 168.92 219.582 168.844 219.511 168.794L129.909 105.957C129.525 105.689 129.069 105.545 128.601 105.545C128.133 105.544 127.676 105.686 127.292 105.953L37.0394 168.794C36.9824 168.833 36.9396 168.89 36.9172 168.956C36.8947 169.022 36.8938 169.093 36.9147 169.159C36.9355 169.225 36.977 169.283 37.033 169.324C37.089 169.365 37.1567 169.388 37.2262 169.388L37.2262 169.388Z" fill="#3F3D56"/>
<path d="M214.017 171.615L128.511 108.259L42.3579 176.123L124.106 224.574L168.488 214.46L214.017 171.615Z" fill="#E6E6E6"/>
<path d="M164.742 254.501H206.983C207.506 254.501 208.008 254.293 208.378 253.924C208.748 253.555 208.957 253.053 208.958 252.53C208.958 252.008 208.752 251.506 208.382 251.135C208.013 250.765 207.512 250.556 206.989 250.555H164.742C164.219 250.554 163.717 250.762 163.347 251.131C162.977 251.501 162.768 252.002 162.768 252.525C162.767 253.048 162.974 253.549 163.343 253.92C163.712 254.29 164.213 254.499 164.736 254.501H164.742Z" fill="#D47AF4"/>
<path d="M191.828 246.018H206.984C207.507 246.018 208.008 245.81 208.378 245.441C208.749 245.072 208.957 244.57 208.958 244.047C208.959 243.525 208.752 243.023 208.383 242.652C208.013 242.282 207.512 242.073 206.989 242.071H191.828C191.305 242.071 190.803 242.279 190.433 242.648C190.063 243.018 189.855 243.519 189.854 244.042C189.853 244.565 190.06 245.066 190.429 245.437C190.798 245.807 191.299 246.016 191.822 246.018H191.828Z" fill="#D47AF4"/>
<path d="M127.309 206.904C127.63 206.904 127.948 206.842 128.245 206.72L180.979 184.844V116.369C180.978 115.763 180.737 115.183 180.309 114.754C179.881 114.326 179.3 114.085 178.695 114.085H77.529C76.9234 114.085 76.3428 114.326 75.9145 114.754C75.4862 115.183 75.2453 115.763 75.2446 116.369V184.892L75.3437 184.935L126.344 206.71C126.65 206.838 126.978 206.904 127.309 206.904V206.904Z" fill="white"/>
<path d="M126.28 206.86L75.0815 185V116.369C75.0823 115.72 75.3404 115.098 75.7992 114.639C76.2581 114.18 76.8802 113.922 77.5291 113.922H178.695C179.344 113.922 179.966 114.18 180.425 114.639C180.883 115.098 181.142 115.72 181.142 116.369V184.953L128.308 206.871C127.657 207.136 126.928 207.132 126.28 206.86H126.28ZM180.49 116.369C180.489 115.893 180.3 115.437 179.963 115.1C179.627 114.764 179.171 114.575 178.695 114.574H77.5291C77.0532 114.575 76.597 114.764 76.2605 115.1C75.924 115.437 75.7348 115.893 75.7342 116.369V184.569L126.535 206.259C127.022 206.463 127.57 206.467 128.059 206.268L180.49 184.517L180.49 116.369Z" fill="#3F3D56"/>
<path d="M35.5942 171.019V270.205C35.5949 270.811 35.8358 271.391 36.2641 271.82C36.6923 272.248 37.273 272.489 37.8786 272.489H219.324C219.93 272.489 220.51 272.248 220.939 271.82C221.367 271.391 221.608 270.811 221.608 270.205V171.019C221.608 170.413 221.367 169.833 220.939 169.405C220.51 168.977 219.93 168.736 219.324 168.735H219.259L219.2 168.761L180.816 184.683L127.932 206.618C127.731 206.701 127.516 206.742 127.299 206.741C127.081 206.74 126.866 206.696 126.666 206.612L75.4078 184.729L37.944 168.735H37.8786C37.273 168.736 36.6923 168.977 36.2641 169.405C35.8358 169.833 35.5949 170.413 35.5942 171.019V171.019ZM36.2469 171.019C36.2479 170.598 36.4112 170.193 36.703 169.889C36.9947 169.586 37.3924 169.406 37.8133 169.388L75.4078 185.437L126.408 207.212C126.975 207.45 127.614 207.454 128.184 207.222L180.816 185.388L219.386 169.388C219.808 169.405 220.206 169.584 220.499 169.888C220.791 170.192 220.955 170.597 220.956 171.019V270.205C220.956 270.638 220.784 271.053 220.478 271.359C220.172 271.665 219.757 271.836 219.324 271.837H37.8786C37.4459 271.836 37.031 271.665 36.725 271.359C36.4191 271.053 36.2471 270.638 36.2469 270.205V171.019Z" fill="#3F3D56"/>
<path d="M86.3854 139.681H122.283C122.975 139.681 123.639 139.406 124.129 138.917C124.619 138.427 124.894 137.763 124.894 137.071C124.894 136.379 124.619 135.715 124.129 135.225C123.639 134.736 122.975 134.461 122.283 134.461H86.3854C85.693 134.461 85.0289 134.736 84.5393 135.225C84.0497 135.715 83.7747 136.379 83.7747 137.071C83.7747 137.763 84.0497 138.427 84.5393 138.917C85.0289 139.406 85.693 139.681 86.3854 139.681V139.681Z" fill="#D47AF4"/>
<path d="M86.4069 128.588H103.703C104.395 128.588 105.059 128.313 105.549 127.823C106.039 127.334 106.314 126.67 106.314 125.978C106.314 125.286 106.039 124.622 105.549 124.132C105.059 123.643 104.395 123.368 103.703 123.368H86.4069C85.7145 123.368 85.0504 123.643 84.5608 124.132C84.0712 124.622 83.7961 125.286 83.7961 125.978C83.7961 126.67 84.0712 127.334 84.5608 127.823C85.0504 128.313 85.7145 128.588 86.4069 128.588V128.588Z" fill="#D47AF4"/>
<path d="M101.263 165.783H156.089C156.781 165.783 157.445 165.508 157.935 165.018C158.424 164.529 158.699 163.865 158.699 163.173C158.699 162.48 158.424 161.817 157.935 161.327C157.445 160.838 156.781 160.562 156.089 160.562H101.263C100.571 160.562 99.9069 160.838 99.4173 161.327C98.9276 161.817 98.6526 162.48 98.6526 163.173C98.6526 163.865 98.9276 164.529 99.4173 165.018C99.9069 165.508 100.571 165.783 101.263 165.783V165.783Z" fill="#CCCCCC"/>
<path d="M101.263 177.855H156.089C156.781 177.855 157.445 177.58 157.935 177.09C158.424 176.601 158.699 175.937 158.699 175.245C158.699 174.552 158.424 173.889 157.935 173.399C157.445 172.91 156.781 172.635 156.089 172.635H101.263C100.571 172.635 99.9069 172.91 99.4173 173.399C98.9276 173.889 98.6526 174.552 98.6526 175.245C98.6526 175.937 98.9276 176.601 99.4173 177.09C99.9069 177.58 100.571 177.855 101.263 177.855V177.855Z" fill="#CCCCCC"/>
<path opacity="0.1" d="M228.491 127.844L239.381 127.215L282.889 180.823L267.518 178.472L258.414 177.097C256.713 175.64 255.179 173.998 253.842 172.202L243.726 169.199L239.071 165.76C239.363 166.878 228.491 127.844 228.491 127.844Z" fill="black"/>
<path d="M158.887 126.138C159.199 124.133 160.292 122.333 161.927 121.131C163.562 119.929 165.607 119.423 167.614 119.723L179.222 121.337L193.583 123.335L204.681 124.877L217.943 124.107L229.982 123.407L237.094 122.997L284.385 181.267L243.726 169.199L239.071 165.76L218.689 150.709C218.689 150.709 212.011 149.479 201.483 147.013C199.917 146.641 182.195 142.195 173.87 139.777C172.257 139.307 170.81 138.816 169.503 138.304C160.221 134.651 158.364 129.969 158.887 126.138Z" fill="#FFB7B7"/>
<path opacity="0.15" d="M165.535 133.418C165.576 133.413 169.72 132.897 171.488 129.863C172.68 127.82 172.56 125.068 171.132 121.684L172.237 121.218C173.821 124.973 173.916 128.087 172.52 130.475C170.442 134.028 165.865 134.587 165.672 134.609L165.535 133.418Z" fill="black"/>
<path opacity="0.15" d="M207.429 125.317L207.426 124.118L228.757 124.084L206.269 110.027L206.905 109.01L232.928 125.276L207.429 125.317Z" fill="black"/>
</g>
<defs>
<clipPath id="clip0_115_2652">
<rect width="357" height="355" fill="white"/>
</clipPath>
</defs>
</svg>
