<svg width="52" height="52" viewBox="0 0 52 52" fill="none" xmlns="http://www.w3.org/2000/svg">
<rect width="52" height="52" rx="26" fill="#D47AF4"/>
<path d="M41.0012 35.0749C39.7796 33.8442 36.8211 32.0482 35.3857 31.3243C33.5164 30.3828 33.3625 30.3059 31.8933 31.3974C30.9133 32.1258 30.2617 32.7766 29.1148 32.532C27.9678 32.2874 25.4754 30.9082 23.2931 28.7329C21.1107 26.5576 19.6514 23.9931 19.4061 22.8501C19.1607 21.7071 19.8222 21.0632 20.5438 20.081C21.5607 18.6964 21.4838 18.4657 20.6145 16.5965C19.9368 15.1427 18.0883 12.2121 16.8529 10.9967C15.5313 9.69142 15.5313 9.92218 14.6798 10.276C13.9865 10.5677 13.3214 10.9222 12.6928 11.3352C11.462 12.1529 10.7789 12.8321 10.3012 13.8528C9.82351 14.8735 9.60889 17.2665 12.0759 21.7478C14.5429 26.2292 16.2737 28.5206 19.8561 32.0928C23.4385 35.6649 26.1931 37.5856 30.2202 39.844C35.2018 42.6339 37.1126 42.09 38.1365 41.6131C39.1604 41.1362 39.8427 40.4593 40.662 39.2286C41.076 38.6011 41.4314 37.9368 41.7235 37.2441C42.0781 36.3957 42.3089 36.3957 41.0012 35.0749Z" stroke="white" stroke-width="2.23067" stroke-miterlimit="10"/>
</svg>
