<svg width="52" height="52" viewBox="0 0 52 52" fill="none" xmlns="http://www.w3.org/2000/svg">
<rect width="52" height="52" rx="26" fill="#D47AF4"/>
<path d="M39.4407 10H12.7343C11.275 10 10 11.05 10 12.4921V39.2579C10 40.7079 11.275 42 12.7343 42H39.4328C40.9 42 42 40.6993 42 39.2579V12.4921C42.0085 11.05 40.9 10 39.4407 10ZM19.9193 36.6736H15.335V22.42H19.9193V36.6736ZM17.7857 20.2529H17.7528C16.2857 20.2529 15.3357 19.1607 15.3357 17.7936C15.3357 16.4014 16.3107 15.335 17.8107 15.335C19.3107 15.335 20.2286 16.3936 20.2614 17.7936C20.2607 19.1607 19.3107 20.2529 17.7857 20.2529ZM36.6735 36.6736H32.0893V28.88C32.0893 27.0129 31.4221 25.7371 29.7635 25.7371C28.4964 25.7371 27.7464 26.5943 27.4128 27.4293C27.2878 27.7293 27.2543 28.1379 27.2543 28.555V36.6736H22.67V22.42H27.2543V24.4036C27.9214 23.4536 28.9635 22.0864 31.3885 22.0864C34.3978 22.0864 36.6742 24.07 36.6742 28.3464L36.6735 36.6736Z" fill="white"/>
</svg>
