<svg width="52" height="52" viewBox="0 0 52 52" fill="none" xmlns="http://www.w3.org/2000/svg">
<rect width="52" height="52" rx="26" fill="#D47AF4"/>
<path d="M40.8571 12H11.1429C10.8398 12 10.5491 12.1341 10.3347 12.3728C10.1204 12.6115 10 12.9352 10 13.2727V38.7273C10 39.0648 10.1204 39.3885 10.3347 39.6272C10.5491 39.8659 10.8398 40 11.1429 40H40.8571C41.1602 40 41.4509 39.8659 41.6653 39.6272C41.8796 39.3885 42 39.0648 42 38.7273V13.2727C42 12.9352 41.8796 12.6115 41.6653 12.3728C41.4509 12.1341 41.1602 12 40.8571 12ZM26.7014 28.2774C26.5009 28.451 26.2541 28.5453 26 28.5453C25.746 28.5453 25.4991 28.451 25.2986 28.2774L14.1107 18.5872L15.5136 16.5778L26 25.6603L36.4864 16.5778L37.8893 18.5872L26.7014 28.2774Z" fill="white"/>
</svg>
