<svg width="52" height="52" viewBox="0 0 52 52" fill="none" xmlns="http://www.w3.org/2000/svg">
<rect width="52" height="52" rx="26" fill="#D47AF4"/>
<path d="M36.5846 17.5818L34.8681 19.2274C34.7956 19.2827 34.7395 19.3568 34.7059 19.4416C34.6722 19.5264 34.6623 19.6188 34.6772 19.7088V31.7986C34.6463 31.9818 34.72 32.1677 34.8681 32.28L36.5439 33.9256V34.287H28.1144V33.9256L29.8505 32.24C30.0211 32.0695 30.0211 32.0189 30.0211 31.7586V21.9867L25.1937 34.247H24.5411L18.9207 21.9867V30.2042C18.8737 30.5495 18.9888 30.8975 19.2316 31.1474L21.4898 33.8863V34.2477H15.087V33.8863L17.3453 31.1474C17.5867 30.8968 17.6947 30.5467 17.6365 30.2042V20.7018C17.6632 20.4379 17.5628 20.1768 17.3656 19.9993L15.3586 17.5811V17.2196H21.5909L26.4084 27.7846L30.6435 17.2196H36.5846V17.5818Z" fill="white"/>
</svg>
